<svg xmlns="http://www.w3.org/2000/svg" width="12.437" height="12.437" viewBox="0 0 12.437 12.437">
  <path id="Icon_material-person-outline" data-name="Icon material-person-outline" d="M12.219,7.477a1.632,1.632,0,1,1-1.632,1.632,1.632,1.632,0,0,1,1.632-1.632m0,7c2.309,0,4.742,1.135,4.742,1.632v.855H7.477v-.855c0-.5,2.433-1.632,4.742-1.632m0-8.473a3.109,3.109,0,1,0,3.109,3.109A3.108,3.108,0,0,0,12.219,6Zm0,7C10.143,13,6,14.038,6,16.105v2.332H18.437V16.105C18.437,14.038,14.294,13,12.219,13Z" transform="translate(-6 -6)" fill="#333"/>
</svg>
